<svg viewBox="0 0 608 608" fill="none" xmlns="http://www.w3.org/2000/svg" style="width:100vw;height:100vh;background:#808080;margin:auto;"><rect x="0" y="0" width="608" height="608" fill="#000" /><rect x="152" y="152" width="304" height="304" fill="#111" /><rect x="152" y="520" width="304" height="88" fill="#111" /><mask id="head"><rect x="195" y="159" width="290" height="289.5" fill="white" /></mask><mask id="torso"><rect x="195" y="447.5" width="290" height="73" fill="white" /></mask><g mask="url(#head)" transform="translate(-36,0)"><use href="#token" /></g><g mask="url(#torso)" transform="translate(-36,80)"><use href="#token" /></g><defs><g id="token"><svg viewBox="0 0 680 680" width="680" height="680" style="pointer-events:none;"><svg viewBox="0 0 680 680" fill="none" xmlns="http://www.w3.org/2000/svg" style="width:100%;background:black;"><defs><path id="check" fill-rule="evenodd" d="M21.36 9.886A3.933 3.933 0 0 0 18 8c-1.423 0-2.67.755-3.36 1.887a3.935 3.935 0 0 0-4.753 4.753A3.933 3.933 0 0 0 8 18c0 1.423.755 2.669 1.886 3.36a3.935 3.935 0 0 0 4.753 4.753 3.933 3.933 0 0 0 4.863 1.59 3.953 3.953 0 0 0 1.858-1.589 3.935 3.935 0 0 0 4.753-4.754A3.933 3.933 0 0 0 28 18a3.933 3.933 0 0 0-1.887-3.36 3.934 3.934 0 0 0-1.042-3.711 3.934 3.934 0 0 0-3.71-1.043Zm-3.958 11.713 4.562-6.844c.566-.846-.751-1.724-1.316-.878l-4.026 6.043-1.371-1.368c-.717-.722-1.836.396-1.116 1.116l2.17 2.15a.788.788 0 0 0 1.097-.22Z"></path><rect id="square" width="36" height="36" stroke="#191919"></rect><g id="row"><use href="#square" x="196" y="160"/><use href="#square" x="232" y="160"/><use href="#square" x="268" y="160"/><use href="#square" x="304" y="160"/><use href="#square" x="340" y="160"/><use href="#square" x="376" y="160"/><use href="#square" x="412" y="160"/><use href="#square" x="448" y="160"/></g></defs><rect width="680" height="680" fill="black"/><rect x="188" y="152" width="304" height="376" fill="#111"/><g id="grid" x="196" y="160"><use href="#row" y="0"/><use href="#row" y="36"/><use href="#row" y="72"/><use href="#row" y="108"/><use href="#row" y="144"/><use href="#row" y="180"/><use href="#row" y="216"/><use href="#row" y="252"/><use href="#row" y="288"/><use href="#row" y="324"/></g><g transform="translate(196, 160) scale(2)"><use href="#check" fill="#45B2D3"><animate attributeName="fill" values="#45B2D3;#6AD1DE;#2E9D9A;#77E39F;#B5F13B;#F9DB49;#FCDE5B;#F7CA57;#F2A93C;#F09837;#ED7C30;#FF8079;#DA3321;#F2281C;#FA5B67;#F2399D;#3B088C;#3D43B3;#3263D0;#A4C8EE;#45B2D3" dur="10s" begin="animation.begin" repeatCount="indefinite" /></use></g><g transform="translate(268, 160) scale(2)"><use href="#check" fill="#A7DDF9"><animate attributeName="fill" values="#A7DDF9;#4291A8;#5FC9BF;#83F1AE;#63C23C;#FBEA5B;#F9DA4A;#FFAB00;#F2B341;#F2A43A;#EF8C37;#EA5B33;#EB4429;#9D262F;#D5332F;#E73E85;#9741DA;#4A2387;#25438C;#2480BD;#A7DDF9" dur="10s" begin="animation.begin" repeatCount="indefinite" /></use></g><g transform="translate(340, 160) scale(2)"><use href="#check" fill="#60B1F4"><animate attributeName="fill" values="#60B1F4;#81D1EC;#5ABAD3;#3EB8A1;#5FCD8C;#94E337;#FAE663;#F9DA4D;#F6CB45;#FFB340;#F9A45C;#EF9933;#FF9193;#EA3A2D;#D41515;#E8424E;#DB2F96;#6C31D7;#322F92;#2E4985;#60B1F4" dur="10s" begin="animation.begin" repeatCount="indefinite" /></use></g><g transform="translate(412, 160) scale(2)"><use href="#check" fill="#4576D0"><animate attributeName="fill" values="#4576D0;#9AD9FB;#33758D;#77D3DE;#9DEFBF;#86E48E;#A7CA45;#FAE272;#F4C44A;#FAD064;#F2A840;#F18930;#D05C35;#EC7368;#DE3237;#C23532;#FF7F8E;#E84AA9;#371471;#525EAA;#4576D0" dur="10s" begin="animation.begin" repeatCount="indefinite" /></use></g><g transform="translate(196, 232) scale(2)"><use href="#check" fill="#45B2D3"><animate attributeName="fill" values="#45B2D3;#6AD1DE;#2E9D9A;#77E39F;#B5F13B;#F9DB49;#FCDE5B;#F7CA57;#F2A93C;#F09837;#ED7C30;#FF8079;#DA3321;#F2281C;#FA5B67;#F2399D;#3B088C;#3D43B3;#3263D0;#A4C8EE;#45B2D3" dur="10s" begin="animation.begin" repeatCount="indefinite" /></use></g><g transform="translate(268, 232) scale(2)"><use href="#check" fill="#A7DDF9"><animate attributeName="fill" values="#A7DDF9;#4291A8;#5FC9BF;#83F1AE;#63C23C;#FBEA5B;#F9DA4A;#FFAB00;#F2B341;#F2A43A;#EF8C37;#EA5B33;#EB4429;#9D262F;#D5332F;#E73E85;#9741DA;#4A2387;#25438C;#2480BD;#A7DDF9" dur="10s" begin="animation.begin" repeatCount="indefinite" /></use></g><g transform="translate(340, 232) scale(2)"><use href="#check" fill="#60B1F4"><animate attributeName="fill" values="#60B1F4;#81D1EC;#5ABAD3;#3EB8A1;#5FCD8C;#94E337;#FAE663;#F9DA4D;#F6CB45;#FFB340;#F9A45C;#EF9933;#FF9193;#EA3A2D;#D41515;#E8424E;#DB2F96;#6C31D7;#322F92;#2E4985;#60B1F4" dur="10s" begin="animation.begin" repeatCount="indefinite" /></use></g><g transform="translate(412, 232) scale(2)"><use href="#check" fill="#4576D0"><animate attributeName="fill" values="#4576D0;#9AD9FB;#33758D;#77D3DE;#9DEFBF;#86E48E;#A7CA45;#FAE272;#F4C44A;#FAD064;#F2A840;#F18930;#D05C35;#EC7368;#DE3237;#C23532;#FF7F8E;#E84AA9;#371471;#525EAA;#4576D0" dur="10s" begin="animation.begin" repeatCount="indefinite" /></use></g><g transform="translate(196, 304) scale(2)"><use href="#check" fill="#45B2D3"><animate attributeName="fill" values="#45B2D3;#6AD1DE;#2E9D9A;#77E39F;#B5F13B;#F9DB49;#FCDE5B;#F7CA57;#F2A93C;#F09837;#ED7C30;#FF8079;#DA3321;#F2281C;#FA5B67;#F2399D;#3B088C;#3D43B3;#3263D0;#A4C8EE;#45B2D3" dur="10s" begin="animation.begin" repeatCount="indefinite" /></use></g><g transform="translate(268, 304) scale(2)"><use href="#check" fill="#A7DDF9"><animate attributeName="fill" values="#A7DDF9;#4291A8;#5FC9BF;#83F1AE;#63C23C;#FBEA5B;#F9DA4A;#FFAB00;#F2B341;#F2A43A;#EF8C37;#EA5B33;#EB4429;#9D262F;#D5332F;#E73E85;#9741DA;#4A2387;#25438C;#2480BD;#A7DDF9" dur="10s" begin="animation.begin" repeatCount="indefinite" /></use></g><g transform="translate(340, 304) scale(2)"><use href="#check" fill="#60B1F4"><animate attributeName="fill" values="#60B1F4;#81D1EC;#5ABAD3;#3EB8A1;#5FCD8C;#94E337;#FAE663;#F9DA4D;#F6CB45;#FFB340;#F9A45C;#EF9933;#FF9193;#EA3A2D;#D41515;#E8424E;#DB2F96;#6C31D7;#322F92;#2E4985;#60B1F4" dur="10s" begin="animation.begin" repeatCount="indefinite" /></use></g><g transform="translate(412, 304) scale(2)"><use href="#check" fill="#4576D0"><animate attributeName="fill" values="#4576D0;#9AD9FB;#33758D;#77D3DE;#9DEFBF;#86E48E;#A7CA45;#FAE272;#F4C44A;#FAD064;#F2A840;#F18930;#D05C35;#EC7368;#DE3237;#C23532;#FF7F8E;#E84AA9;#371471;#525EAA;#4576D0" dur="10s" begin="animation.begin" repeatCount="indefinite" /></use></g><g transform="translate(196, 376) scale(2)"><use href="#check" fill="#45B2D3"><animate attributeName="fill" values="#45B2D3;#6AD1DE;#2E9D9A;#77E39F;#B5F13B;#F9DB49;#FCDE5B;#F7CA57;#F2A93C;#F09837;#ED7C30;#FF8079;#DA3321;#F2281C;#FA5B67;#F2399D;#3B088C;#3D43B3;#3263D0;#A4C8EE;#45B2D3" dur="10s" begin="animation.begin" repeatCount="indefinite" /></use></g><g transform="translate(268, 376) scale(2)"><use href="#check" fill="#A7DDF9"><animate attributeName="fill" values="#A7DDF9;#4291A8;#5FC9BF;#83F1AE;#63C23C;#FBEA5B;#F9DA4A;#FFAB00;#F2B341;#F2A43A;#EF8C37;#EA5B33;#EB4429;#9D262F;#D5332F;#E73E85;#9741DA;#4A2387;#25438C;#2480BD;#A7DDF9" dur="10s" begin="animation.begin" repeatCount="indefinite" /></use></g><g transform="translate(340, 376) scale(2)"><use href="#check" fill="#60B1F4"><animate attributeName="fill" values="#60B1F4;#81D1EC;#5ABAD3;#3EB8A1;#5FCD8C;#94E337;#FAE663;#F9DA4D;#F6CB45;#FFB340;#F9A45C;#EF9933;#FF9193;#EA3A2D;#D41515;#E8424E;#DB2F96;#6C31D7;#322F92;#2E4985;#60B1F4" dur="10s" begin="animation.begin" repeatCount="indefinite" /></use></g><g transform="translate(412, 376) scale(2)"><use href="#check" fill="#4576D0"><animate attributeName="fill" values="#4576D0;#9AD9FB;#33758D;#77D3DE;#9DEFBF;#86E48E;#A7CA45;#FAE272;#F4C44A;#FAD064;#F2A840;#F18930;#D05C35;#EC7368;#DE3237;#C23532;#FF7F8E;#E84AA9;#371471;#525EAA;#4576D0" dur="10s" begin="animation.begin" repeatCount="indefinite" /></use></g><g transform="translate(196, 448) scale(2)"><use href="#check" fill="#45B2D3"><animate attributeName="fill" values="#45B2D3;#6AD1DE;#2E9D9A;#77E39F;#B5F13B;#F9DB49;#FCDE5B;#F7CA57;#F2A93C;#F09837;#ED7C30;#FF8079;#DA3321;#F2281C;#FA5B67;#F2399D;#3B088C;#3D43B3;#3263D0;#A4C8EE;#45B2D3" dur="10s" begin="animation.begin" repeatCount="indefinite" /></use></g><g transform="translate(268, 448) scale(2)"><use href="#check" fill="#A7DDF9"><animate attributeName="fill" values="#A7DDF9;#4291A8;#5FC9BF;#83F1AE;#63C23C;#FBEA5B;#F9DA4A;#FFAB00;#F2B341;#F2A43A;#EF8C37;#EA5B33;#EB4429;#9D262F;#D5332F;#E73E85;#9741DA;#4A2387;#25438C;#2480BD;#A7DDF9" dur="10s" begin="animation.begin" repeatCount="indefinite" /></use></g><g transform="translate(340, 448) scale(2)"><use href="#check" fill="#60B1F4"><animate attributeName="fill" values="#60B1F4;#81D1EC;#5ABAD3;#3EB8A1;#5FCD8C;#94E337;#FAE663;#F9DA4D;#F6CB45;#FFB340;#F9A45C;#EF9933;#FF9193;#EA3A2D;#D41515;#E8424E;#DB2F96;#6C31D7;#322F92;#2E4985;#60B1F4" dur="10s" begin="animation.begin" repeatCount="indefinite" /></use></g><g transform="translate(412, 448) scale(2)"><use href="#check" fill="#4576D0"><animate attributeName="fill" values="#4576D0;#9AD9FB;#33758D;#77D3DE;#9DEFBF;#86E48E;#A7CA45;#FAE272;#F4C44A;#FAD064;#F2A840;#F18930;#D05C35;#EC7368;#DE3237;#C23532;#FF7F8E;#E84AA9;#371471;#525EAA;#4576D0" dur="10s" begin="animation.begin" repeatCount="indefinite" /></use></g><rect width="680" height="680" fill="transparent"><animate attributeName="width" from="680" to="0" dur="0.2s" begin="click" fill="freeze" id="animation"/></rect></svg></svg></g></defs></svg>