<svg viewBox="0 0 608 608" fill="none" xmlns="http://www.w3.org/2000/svg" style="width:100vw;height:100vh;background:#808080;margin:auto;"><rect x="0" y="0" width="608" height="608" fill="#ebebeb" /><rect x="152" y="152" width="304" height="304" fill="#111" /><rect x="152" y="520" width="304" height="88" fill="#111" /><mask id="head"><rect x="195" y="195.5" width="290" height="289" fill="white" /></mask><mask id="torso"><rect x="195" y="447.5" width="290" height="73" fill="white" /></mask><g mask="url(#head)" transform="translate(-36,-36)"><use href="#token" /></g><g mask="url(#torso)" transform="translate(-36,80)"><use href="#token" /></g><defs><g id="token"><svg viewBox="0 0 680 680" width="680" height="680" style="pointer-events:none;"><svg viewBox="0 0 680 680" fill="none" xmlns="http://www.w3.org/2000/svg" style="width:100%;background:black;"><defs><path id="check" fill-rule="evenodd" d="M21.36 9.886A3.933 3.933 0 0 0 18 8c-1.423 0-2.67.755-3.36 1.887a3.935 3.935 0 0 0-4.753 4.753A3.933 3.933 0 0 0 8 18c0 1.423.755 2.669 1.886 3.36a3.935 3.935 0 0 0 4.753 4.753 3.933 3.933 0 0 0 4.863 1.59 3.953 3.953 0 0 0 1.858-1.589 3.935 3.935 0 0 0 4.753-4.754A3.933 3.933 0 0 0 28 18a3.933 3.933 0 0 0-1.887-3.36 3.934 3.934 0 0 0-1.042-3.711 3.934 3.934 0 0 0-3.71-1.043Zm-3.958 11.713 4.562-6.844c.566-.846-.751-1.724-1.316-.878l-4.026 6.043-1.371-1.368c-.717-.722-1.836.396-1.116 1.116l2.17 2.15a.788.788 0 0 0 1.097-.22Z"></path><rect id="square" width="36" height="36" stroke="#191919"></rect><g id="row"><use href="#square" x="196" y="160"/><use href="#square" x="232" y="160"/><use href="#square" x="268" y="160"/><use href="#square" x="304" y="160"/><use href="#square" x="340" y="160"/><use href="#square" x="376" y="160"/><use href="#square" x="412" y="160"/><use href="#square" x="448" y="160"/></g></defs><rect width="680" height="680" fill="black"/><rect x="188" y="152" width="304" height="376" fill="#111"/><g id="grid" x="196" y="160"><use href="#row" y="0"/><use href="#row" y="36"/><use href="#row" y="72"/><use href="#row" y="108"/><use href="#row" y="144"/><use href="#row" y="180"/><use href="#row" y="216"/><use href="#row" y="252"/><use href="#row" y="288"/><use href="#row" y="324"/></g><g transform="translate(268, 268) scale(2)"><use href="#check" fill="#63C23C"><animate attributeName="fill" values="#63C23C;#83F1AE;#5FC9BF;#4291A8;#A7DDF9;#2480BD;#25438C;#4A2387;#9741DA;#E73E85;#D5332F;#9D262F;#EB4429;#EA5B33;#EF8C37;#F2A43A;#F2B341;#FFAB00;#F9DA4A;#FBEA5B;#63C23C" dur="10s" begin="animation.begin" repeatCount="indefinite" /></use></g><g transform="translate(340, 268) scale(2)"><use href="#check" fill="#63C23C"><animate attributeName="fill" values="#63C23C;#83F1AE;#5FC9BF;#4291A8;#A7DDF9;#2480BD;#25438C;#4A2387;#9741DA;#E73E85;#D5332F;#9D262F;#EB4429;#EA5B33;#EF8C37;#F2A43A;#F2B341;#FFAB00;#F9DA4A;#FBEA5B;#63C23C" dur="10s" begin="animation.begin" repeatCount="indefinite" /></use></g><g transform="translate(268, 340) scale(2)"><use href="#check" fill="#EA3A2D"><animate attributeName="fill" values="#EA3A2D;#FF9193;#EF9933;#F9A45C;#FFB340;#F6CB45;#F9DA4D;#FAE663;#94E337;#5FCD8C;#3EB8A1;#5ABAD3;#81D1EC;#60B1F4;#2E4985;#322F92;#6C31D7;#DB2F96;#E8424E;#D41515;#EA3A2D" dur="10s" begin="animation.begin" repeatCount="indefinite" /></use></g><g transform="translate(340, 340) scale(2)"><use href="#check" fill="#EA3A2D"><animate attributeName="fill" values="#EA3A2D;#FF9193;#EF9933;#F9A45C;#FFB340;#F6CB45;#F9DA4D;#FAE663;#94E337;#5FCD8C;#3EB8A1;#5ABAD3;#81D1EC;#60B1F4;#2E4985;#322F92;#6C31D7;#DB2F96;#E8424E;#D41515;#EA3A2D" dur="10s" begin="animation.begin" repeatCount="indefinite" /></use></g><rect width="680" height="680" fill="transparent"><animate attributeName="width" from="680" to="0" dur="0.2s" begin="click" fill="freeze" id="animation"/></rect></svg></svg></g></defs></svg>